<svg id="brands-and-logotypes" xmlns="http://www.w3.org/2000/svg" width="63.875" height="63.875" viewBox="0 0 63.875 63.875">
  <path id="Path_29" data-name="Path 29" d="M291.656,508.668q-.4.065-.8.12Q291.257,508.733,291.656,508.668Zm0,0" transform="translate(-254.569 -445.209)"/>
  <path id="Path_30" data-name="Path 30" d="M299.721,507.793c-.127.023-.254.045-.382.067C299.467,507.838,299.594,507.816,299.721,507.793Zm0,0" transform="translate(-261.995 -444.443)"/>
  <path id="Path_31" data-name="Path 31" d="M278.549,510.34q-.467.053-.939.093Q278.081,510.393,278.549,510.34Zm0,0" transform="translate(-242.976 -446.672)"/>
  <path id="Path_32" data-name="Path 32" d="M286.9,509.738c-.15.02-.3.038-.45.056C286.6,509.776,286.746,509.758,286.9,509.738Zm0,0" transform="translate(-250.71 -446.145)"/>
  <path id="Path_33" data-name="Path 33" d="M307,506.41l-.337.071Zm0,0" transform="translate(-268.406 -443.232)"/>
  <path id="Path_34" data-name="Path 34" d="M324.756,502.113l-.272.076Zm0,0" transform="translate(-284.003 -439.471)"/>
  <path id="Path_35" data-name="Path 35" d="M319.355,503.543l-.3.077Zm0,0" transform="translate(-279.255 -440.723)"/>
  <path id="Path_36" data-name="Path 36" d="M312.381,505.254l-.315.071Zm0,0" transform="translate(-273.134 -442.22)"/>
  <path id="Path_37" data-name="Path 37" d="M273.985,511.09q-.252.021-.5.038Q273.733,511.111,273.985,511.09Zm0,0" transform="translate(-239.362 -447.328)"/>
  <path id="Path_38" data-name="Path 38" d="M63.875,31.938A31.937,31.937,0,1,0,31.937,63.875c.188,0,.374,0,.561-.007V39.006H25.637v-8H32.5V25.125c0-6.825,4.166-10.539,10.254-10.539A56.483,56.483,0,0,1,48.9,14.9v7.133h-4.2c-3.312,0-3.953,1.574-3.953,3.884v5.093h7.919l-1.032,8H40.753V62.641a31.955,31.955,0,0,0,23.122-30.7Zm0,0"/>
  <path id="Path_39" data-name="Path 39" d="M265.892,511.43q-.5.032-1,.05Q265.393,511.463,265.892,511.43Zm0,0" transform="translate(-231.844 -447.626)"/>
  <path id="Path_40" data-name="Path 40" d="M261.034,511.836q-.265.009-.53.013Q260.769,511.845,261.034,511.836Zm0,0" transform="translate(-228.005 -447.981)"/>
</svg>
