<svg id="brands-and-logotypes_1_" data-name="brands-and-logotypes (1)" xmlns="http://www.w3.org/2000/svg" width="63.875" height="63.875" viewBox="0 0 63.875 63.875">
  <path id="Path_26" data-name="Path 26" d="M219.226,213.113A6.113,6.113,0,1,1,213.113,207,6.113,6.113,0,0,1,219.226,213.113Zm0,0" transform="translate(-181.176 -181.175)"/>
  <path id="Path_27" data-name="Path 27" d="M164.816,139.707a6.073,6.073,0,0,0-3.48-3.48,10.146,10.146,0,0,0-3.4-.631c-1.934-.088-2.514-.107-7.411-.107s-5.477.019-7.411.107a10.153,10.153,0,0,0-3.4.632,6.076,6.076,0,0,0-3.481,3.48,10.15,10.15,0,0,0-.631,3.405c-.088,1.934-.107,2.514-.107,7.411s.019,5.477.107,7.411a10.146,10.146,0,0,0,.631,3.4,6.073,6.073,0,0,0,3.48,3.48,10.134,10.134,0,0,0,3.405.632c1.934.088,2.513.107,7.41.107s5.478-.019,7.411-.107a10.134,10.134,0,0,0,3.405-.632,6.073,6.073,0,0,0,3.48-3.48,10.156,10.156,0,0,0,.632-3.4c.088-1.934.107-2.514.107-7.411s-.019-5.477-.107-7.411A10.135,10.135,0,0,0,164.816,139.707Zm-14.3,20.233a9.417,9.417,0,1,1,9.417-9.417A9.417,9.417,0,0,1,150.52,159.94Zm9.789-17.006a2.2,2.2,0,1,1,2.2-2.2A2.2,2.2,0,0,1,160.309,142.934Zm0,0" transform="translate(-118.582 -118.586)"/>
  <path id="Path_28" data-name="Path 28" d="M31.937,0A31.938,31.938,0,1,0,63.875,31.938,31.941,31.941,0,0,0,31.937,0ZM50.166,39.5a13.455,13.455,0,0,1-.852,4.452,9.377,9.377,0,0,1-5.364,5.364,13.464,13.464,0,0,1-4.451.852c-1.956.089-2.58.111-7.561.111s-5.605-.021-7.561-.111a13.464,13.464,0,0,1-4.451-.852,9.377,9.377,0,0,1-5.364-5.364,13.452,13.452,0,0,1-.852-4.451c-.09-1.956-.111-2.581-.111-7.561s.021-5.605.111-7.561a13.456,13.456,0,0,1,.852-4.452,9.383,9.383,0,0,1,5.364-5.364,13.468,13.468,0,0,1,4.452-.852c1.956-.089,2.58-.111,7.561-.111s5.605.021,7.561.111a13.47,13.47,0,0,1,4.452.851,9.38,9.38,0,0,1,5.364,5.364,13.454,13.454,0,0,1,.853,4.452c.089,1.956.11,2.58.11,7.561S50.256,37.543,50.166,39.5Zm0,0"/>
</svg>
