<svg xmlns="http://www.w3.org/2000/svg" width="63.875" height="63.875" viewBox="0 0 63.875 63.875">
  <path id="Twitter" d="M31.937,0A31.938,31.938,0,1,0,63.875,31.938,31.941,31.941,0,0,0,31.937,0ZM46.52,24.9q.021.471.021.947c0,9.687-7.373,20.857-20.857,20.857h0a20.75,20.75,0,0,1-11.236-3.293,14.91,14.91,0,0,0,1.749.1,14.709,14.709,0,0,0,9.1-3.138,7.339,7.339,0,0,1-6.848-5.092,7.306,7.306,0,0,0,3.311-.126,7.332,7.332,0,0,1-5.881-7.186c0-.033,0-.063,0-.094a7.28,7.28,0,0,0,3.32.917,7.337,7.337,0,0,1-2.269-9.787,20.812,20.812,0,0,0,15.11,7.659,7.335,7.335,0,0,1,12.492-6.685,14.7,14.7,0,0,0,4.655-1.779,7.359,7.359,0,0,1-3.224,4.055,14.62,14.62,0,0,0,4.21-1.154,14.9,14.9,0,0,1-3.656,3.8Zm0,0"/>
</svg>
